# xmcd CD database file
# Copyright (C) 1996 Ti Kan
#
# Track frame offsets:
# 	150
# 	13645
# 	33780
# 	47653
# 	71568
# 	95910
# 	111255
# 	125783
# 	133230
# 	152565
# 	165900
# 	178595
#
# Disc length: 2748 seconds
#
# Revision: 1
# Processed by: cddbd v1.4b41PL1 Copyright (c) Steve Scherf et al.
# Submitted via: DiscPlay 3.4.1
#
DISCID=9f0aba0c
DTITLE=Randy Coven - Funk Me Tender
DYEAR=1900
DGENRE=
TTITLE0=Star Spangled Banner
TTITLE1=Manhattan Mama
TTITLE2=Caught In The Act
TTITLE3=Funk Me Tender
TTITLE4=Toronto Blues
TTITLE5=Uptown
TTITLE6=Stuff It
TTITLE7=Yesterday
TTITLE8=Tree
TTITLE9=The Chase
TTITLE10=Poached Antelope
TTITLE11=Chopped Sewage
EXTD=
EXTT0=
EXTT1=
EXTT2=
EXTT3=
EXTT4=
EXTT5=
EXTT6=
EXTT7=
EXTT8=
EXTT9=
EXTT10=
EXTT11=
PLAYORDER=
